<?xml version="1.0"?>
<svg width="1024" height="1024" xmlns="http://www.w3.org/2000/svg" xmlns:svg="http://www.w3.org/2000/svg" version="1.1">
 <g class="layer">
  <title>Layer 1</title>
  <ellipse cx="501.83" cy="492.33" fill="#000000" id="svg_3" rx="280.5" ry="261" transform="matrix(1 0 0 1 0 0)"/>
  <path d="m477.78,247.35c-2.59,1.84 -6.82,4.16 -9.39,5.14c-2.57,0.98 -8.32,4.04 -12.78,6.81c-27.85,17.25 -50,40.27 -73.8,76.7c-7.72,11.82 -15.81,25.66 -15.81,27.05c0,1.16 27.14,9.57 43.5,13.48c3.85,0.92 10.82,2.71 15.5,3.98c4.68,1.27 10.16,2.55 12.18,2.83l3.68,0.51l0.34,-33.67l0.35,-33.68l2.69,-6.77c3.16,-7.95 10.09,-17.91 15.63,-22.46c7.17,-5.87 16.96,-10.27 24.38,-10.95l6.75,-0.61l0,-3.7c0,-2.03 -0.29,-9.17 -0.65,-15.85l-0.66,-12.16l-3.6,0c-2.48,0 -5.06,1.04 -8.31,3.35m24.21,5.9c0,5.09 -0.28,12.2 -0.62,15.8l-0.62,6.55l8.66,1.16c6.3,0.84 10.35,2.05 14.87,4.45c8.33,4.4 18.42,14.69 22.42,22.86c5.39,11.01 6.3,18.31 6.3,50.48l0,28.63l4.25,-0.68c7.91,-1.25 33.75,-8.55 50.05,-14.13c8.91,-3.05 16.75,-5.71 17.41,-5.91c1.36,-0.41 -11.51,-23.03 -20.46,-35.96c-9.57,-13.82 -23.99,-30.99 -34.57,-41.18c-13.27,-12.77 -32.8,-27.34 -44.68,-33.32c-2.48,-1.25 -6.38,-3.56 -8.68,-5.14c-3.25,-2.22 -5.31,-2.86 -9.25,-2.86l-5.07,0l-0.01,9.25m200.5,-7.38c-7.95,3.61 -13.17,12.36 -12.25,20.54c0.74,6.63 3.53,11.37 8.31,14.17c5.53,3.24 10.22,3.97 16.1,2.49c6.11,-1.54 9.45,-4 13.26,-9.74c2.55,-3.86 3.09,-5.67 3.09,-10.42c0,-4.95 -0.45,-6.35 -3.25,-10.01c-6.28,-8.21 -16.44,-11.04 -25.26,-7.03m-161.92,1c0.51,0.46 5.66,3.91 11.43,7.66c16.87,10.97 41.4,36.87 60.88,64.27c4.06,5.72 15.89,24.86 22.96,37.18c1.09,1.9 2.72,1.18 18.66,-8.2c13.76,-8.1 18.39,-11.04 24,-15.26c2.2,-1.65 4.17,-3.1 4.38,-3.22c0.64,-0.37 -24.96,-24.65 -32.59,-30.89c-27.86,-22.84 -64.99,-41.78 -94.79,-48.35c-5.5,-1.21 -11.32,-2.62 -12.93,-3.12c-1.61,-0.5 -2.51,-0.53 -2,-0.07m-98.71,2.08c-7.99,1.84 -27.04,8.17 -39.86,13.23c-17.81,7.03 -46.56,24.96 -64,39.92c-12.6,10.81 -28.97,26.19 -28.99,27.24c-0.05,3.29 39.87,27.69 45.22,27.65c0.7,0 3.49,-4.17 6.21,-9.25c4.98,-9.3 20.75,-33.52 24.26,-37.24c1.04,-1.1 3.42,-4.25 5.29,-7c1.88,-2.75 3.89,-5.56 4.46,-6.24c13.1,-15.54 31.53,-32.32 46.37,-42.19c5.68,-3.78 10.59,-7.14 10.92,-7.47c0.91,-0.92 -1.53,-0.58 -9.88,1.35m293.14,89.4c0,4.25 0.91,4.99 15.32,12.49c16.16,8.41 21.59,12.19 29.03,20.22c16.75,18.09 20.93,40.58 12.46,66.94c-2.66,8.26 -10.39,23.93 -16.21,32.85c-8.45,12.94 -39.01,44.67 -55.21,57.32c-33.8,26.38 -52.96,39.89 -62.81,44.26c-2.8,1.25 -10.03,5.2 -16.08,8.79c-36.06,21.39 -88.24,42.19 -137.5,54.81c-19.35,4.95 -44.92,9.9 -56.5,10.94c-62.78,5.6 -90.96,5.18 -128.79,-1.9c-14.57,-2.73 -24.68,-5.2 -30.5,-7.46c-4.79,-1.86 -11.98,-4.11 -15.97,-5.01c-19.34,-4.34 -37.29,-14.36 -49.74,-27.76c-7.88,-8.49 -12.82,-17.13 -15.53,-27.17c-1.93,-7.17 -2.14,-9.89 -1.71,-22.17c0.41,-11.7 1.02,-15.89 3.69,-25.5c4.57,-16.41 4.76,-18 2.17,-18c-4.32,0 -11.31,12.45 -15.29,27.2c-1.83,6.79 -2.24,11.02 -2.28,23.3c-0.05,14.46 0.07,15.32 3.18,23.91c4.71,12.98 9.98,21.18 19.1,29.7c8.17,7.64 23.2,17.29 35.67,22.9c6.37,2.87 16.61,6.14 39.08,12.48c4.44,1.26 14.79,3.51 23,5c8.21,1.5 15.22,2.9 15.58,3.12c2.26,1.36 32.29,3.39 50.26,3.39c26.73,0 66.45,-3.33 91.08,-7.62c23.77,-4.16 72.57,-17.42 90.43,-24.58c4.17,-1.67 10.49,-4.08 14.07,-5.35c28.9,-10.31 77.09,-34.33 101.02,-50.36c15.47,-10.36 49.32,-35.74 63.38,-47.52c27.49,-23.05 51.89,-53.81 61.07,-77c1.5,-3.81 3.85,-11.23 5.21,-16.5c2.22,-8.58 2.42,-11.02 2.01,-23.57c-0.39,-11.76 -0.87,-15.18 -3.06,-21.39c-8.06,-22.88 -25.88,-38.52 -57.04,-50.08c-5.98,-2.22 -11.26,-4.03 -11.73,-4.03c-0.47,0 -0.86,1.5 -0.86,3.35m-445.39,16.46c-5.71,8.63 -12.61,20.19 -15.35,25.69c-11.69,23.53 -21.12,54.98 -24.45,81.5c-1.92,15.36 -1.62,51.91 0.54,64.5c2.1,12.32 7.47,32.99 11.68,45c6.62,18.89 23.64,50.73 29.64,55.45c2.15,1.69 4.05,2.05 10.92,2.05c7.48,0 9.21,-0.39 17.11,-3.87c4.84,-2.12 12.18,-5.08 16.3,-6.56c4.13,-1.48 8.48,-3.33 9.69,-4.11c2.53,-1.65 2.4,-2.34 -2.73,-14.96c-3.87,-9.52 -8.42,-24.92 -9.95,-33.69c-0.61,-3.47 -1.57,-7.77 -2.14,-9.56l-1.02,-3.25l-10.95,0c-16.21,0 -26.08,-4.08 -39.5,-16.33c-4.9,-4.48 -7.32,-7.73 -10.4,-14c-4.71,-9.59 -6,-15.62 -6,-28.08c0,-11.7 2.29,-19.99 8.38,-30.38c9.86,-16.82 22.51,-23.86 45.01,-25.07c9.11,-0.49 12.08,-0.99 12.66,-2.14c0.42,-0.82 1.7,-6.68 2.83,-13c2.38,-13.2 8.25,-32.71 13.51,-44.84c1.99,-4.59 3.61,-8.88 3.61,-9.54c0,-0.67 -4.15,-3.21 -9.22,-5.66c-5.07,-2.46 -16.09,-9.04 -24.5,-14.65l-15.29,-10.18l-10.38,15.68m388.39,-6.39c-6.87,4.6 -17.79,11.15 -24.25,14.56c-6.46,3.41 -11.75,6.52 -11.75,6.91c0,0.39 0.37,1.14 0.83,1.66c3.52,4.04 14.48,37.24 19.75,59.82l1.84,7.86l6.26,-0.64c23.45,-2.4 46.85,12.74 55.15,35.69c2.34,6.47 2.62,8.68 2.64,21.22l0.03,14l6.67,-6.36c3.68,-3.5 7.23,-7.69 7.9,-9.31c3.19,-7.69 -2.66,-48.85 -10.56,-74.33c-5.33,-17.19 -19.61,-47.52 -28.95,-61.46c-3.12,-4.66 -6.84,-10.62 -8.27,-13.25c-1.43,-2.64 -3.1,-4.78 -3.7,-4.76c-0.6,0.02 -6.71,3.79 -13.59,8.39m-318.47,27.33c-10.05,25.64 -14.73,41.52 -17.77,60.33l-0.42,2.57l38.08,-0.18c59.88,-0.28 54.21,0.1 58.18,-3.87l3.4,-3.4l0,-18.46l0,-18.45l-5.94,-0.62c-13.99,-1.47 -36.08,-6.89 -57.81,-14.2c-8.94,-3.01 -16.43,-5.47 -16.65,-5.47c-0.21,0 -0.7,0.79 -1.07,1.75m253.09,3.94c-15.2,5.22 -38.62,11.59 -52.77,14.34l-6.65,1.3l-0.41,17.08c-0.22,9.4 -0.05,18.1 0.38,19.34c0.43,1.24 2.25,3.15 4.06,4.25c3.14,1.91 5.06,1.99 48.66,2l45.38,0l-0.59,-4.25c-2.07,-15.01 -17.6,-59.86 -20.64,-59.63c-0.85,0.06 -8.69,2.57 -17.42,5.57m-122.12,12.7c-4.94,2.16 -9.68,6.77 -11.74,11.42c-1.78,4.03 -1.88,5.84 -1.22,22.68l0.72,18.29l-2.38,0.72c-2.45,0.74 -37.59,18.12 -39.38,19.48c-0.55,0.41 -6.85,3.8 -14,7.52c-20.04,10.42 -23.11,12.29 -26.42,16.06c-3.65,4.16 -4.01,8.41 -1.11,13.15c2.8,4.61 6.61,5.3 17.01,3.12c4.69,-0.99 9.68,-1.8 11.1,-1.81c2.59,-0.02 16.07,-2.64 38.27,-7.45c6.52,-1.42 13.39,-2.57 15.25,-2.57l3.4,0l0,25.42c0,13.98 0.25,26.06 0.55,26.84c0.35,0.92 -1.53,2.99 -5.25,5.79c-3.19,2.4 -7.94,6.36 -10.55,8.8c-4.41,4.11 -4.75,4.77 -4.75,9.29c0,5.48 2.4,8.86 6.29,8.86c2.95,0 18.81,-4.58 24.92,-7.19l4.7,-2.02l6.8,2.6c6.89,2.63 22.95,6.55 27.01,6.59c3.04,0.03 5.48,-4.9 5.08,-10.28c-0.29,-4.03 -0.73,-4.53 -11.04,-12.7l-10.74,-8.5l-0.01,-26.86l-0.01,-26.86l2.75,0.7c1.51,0.38 5.29,1.11 8.39,1.61c3.1,0.51 11.2,2.07 18,3.48c12.62,2.61 43.91,7.43 48.29,7.43c2.85,0 8.3,-5.09 9.18,-8.58c0.33,-1.33 0.33,-3.51 0,-4.84c-1.45,-5.79 -5.31,-8.29 -37.41,-24.21c-17.43,-8.65 -35.68,-17.95 -40.54,-20.66c-8.63,-4.82 -8.83,-5.01 -8.27,-8.07c1.06,-5.84 0.92,-33.07 -0.18,-35.78c-1.61,-3.95 -6.78,-9.43 -10.62,-11.25c-4.06,-1.93 -8.02,-2 -12.09,-0.22m-0.22,16.56c-2.17,2.03 -4.7,8.28 -4.09,10.12c0.39,1.18 20.54,2.18 21.24,1.05c0.24,-0.39 0.18,-2.65 -0.14,-5.02c-0.46,-3.43 -1.21,-4.69 -3.69,-6.2c-4.11,-2.51 -10.6,-2.48 -13.32,0.05m236.72,141.51c-32.02,25.61 -48.6,37.2 -67.36,47.07c-11.11,5.84 -13.06,7.24 -14.31,10.23c-1.87,4.47 -1.42,5.45 3.29,7.12c2.14,0.75 9.73,4.07 16.88,7.36c7.15,3.3 17.15,7.71 22.22,9.79l9.21,3.81l2.86,-4.67c5.75,-9.39 21.26,-38.91 25.04,-47.67c7.38,-17.07 15.1,-41.65 13.03,-41.47c-0.2,0.02 -5.09,3.81 -10.86,8.43m-170.08,2.76c-1.07,0.4 -2.39,1.89 -2.93,3.32c-1.15,3.01 -1.37,56.47 -0.24,56.45c1.51,-0.03 22.03,-7.94 31.75,-12.24c5.5,-2.44 13.6,-5.93 18,-7.77c4.4,-1.83 15.33,-7.12 24.28,-11.76c14.22,-7.36 16.52,-8.89 18.13,-12.07c2.26,-4.45 5.62,-14.95 4.99,-15.58c-0.77,-0.78 -91.91,-1.11 -93.98,-0.35m-214.35,2.53c4.21,18.96 12.86,44.96 18.21,54.71c2.32,4.23 3.38,5.16 7.16,6.25c2.44,0.7 4.85,1.68 5.35,2.18c1.51,1.51 -0.27,5.07 -2.86,5.72c-1.33,0.33 -2.43,0.87 -2.43,1.19c0,1.46 8.09,13.96 10.48,16.2c2.49,2.32 3.5,2.52 14.38,2.83c6.44,0.18 18.16,-0.38 26.05,-1.25c7.89,-0.87 16.09,-1.58 18.22,-1.58l3.87,0l0,-41.42c0,-22.78 -0.28,-42.15 -0.62,-43.04c-1.67,-4.35 -3.83,-4.54 -52.35,-4.54l-46.07,0l0.61,2.75m319.18,3c-0.27,3.16 -0.36,5.91 -0.19,6.1c0.17,0.19 1.8,-0.77 3.62,-2.13c1.83,-1.37 5.23,-3.45 7.57,-4.63c6.72,-3.37 5.67,-5.09 -3.13,-5.09l-7.37,0l-0.5,5.75m-51.16,63.37c-2.14,0.5 -12.04,4.59 -22,9.07c-9.95,4.49 -21.92,9.4 -26.59,10.9l-8.5,2.74l-0.7,15.14c-0.41,9.03 -1.35,17.44 -2.34,20.83c-3,10.4 -12.17,23.2 -19.79,27.65c-5.08,2.96 -18.89,7.55 -22.72,7.55c-5.45,0 -5.95,0.67 -5.95,7.96c0,3.71 0.29,9.55 0.65,12.98l0.65,6.23l3.6,-0.61c5.53,-0.92 26.21,-11.56 39.93,-20.52c8.49,-5.55 15.78,-11.42 23.36,-18.8c21.25,-20.69 33.36,-37.54 50.36,-70.05c5.24,-10.02 5.16,-11.14 -0.72,-11.18c-1.47,0 -3.27,-0.19 -4,-0.41c-0.73,-0.22 -3.09,0.02 -5.24,0.52m-259.13,2.81c-0.53,0.52 -5.17,2.56 -10.32,4.52c-9.78,3.73 -15.14,6.46 -15.14,7.72c0,0.8 11.19,4.3 17,5.32c1.93,0.34 7.63,0.94 12.68,1.34l9.17,0.72l-5.17,-9.96c-5.19,-9.98 -6.43,-11.44 -8.22,-9.66m279.04,15.7c-13.56,26.71 -29.07,48.19 -49.4,68.41c-9.56,9.51 -14.1,13.11 -25.85,20.48c-7.84,4.92 -14.25,9.23 -14.25,9.59c0,0.88 7.55,-0.62 20.67,-4.12c23.9,-6.37 52.23,-20.66 75.83,-38.24c11.7,-8.73 34.85,-31.21 45.32,-44.02c5.43,-6.65 6.07,-7.83 4.5,-8.37c-2.8,-0.97 -18.53,-7.6 -31.5,-13.27c-18.34,-8.02 -15.94,-8.93 -25.32,9.54m-306.5,28.11c0,0.53 3.49,4.36 7.75,8.51c14.99,14.58 24.07,21.61 41.46,32.04c15.41,9.25 19.97,11.6 34.79,17.88c14.3,6.06 47,14.97 47,12.81c0,-0.43 -2.36,-2 -5.25,-3.5c-19.14,-9.96 -41.91,-30.49 -60,-54.08l-7.73,-10.09l-18.26,-0.65c-16.5,-0.58 -27.3,-1.55 -36.51,-3.27c-1.84,-0.35 -3.25,-0.19 -3.25,0.35m110.5,1.25c-2.2,0.44 -11.54,1.12 -20.75,1.51c-9.21,0.4 -16.75,1.04 -16.75,1.42c0,1.63 12.3,15.55 24.42,27.62c13.34,13.31 20.52,18.69 40.08,30.03c16.84,9.77 21.86,12.25 25.5,12.6l3.5,0.33l0.28,-13.75l0.28,-13.75l-2.37,0c-7.23,0 -23.56,-8.15 -30.8,-15.38c-7.58,-7.57 -10.95,-13.02 -13.92,-22.56c-1.6,-5.14 -3.22,-8.62 -4.07,-8.7c-0.77,-0.09 -3.2,0.2 -5.4,0.63" fill="#20868a" fill-rule="evenodd" id="svg_1"/>
  <ellipse cx="284.33" cy="267.33" fill="#ffffff" id="svg_4" opacity="0.5" rx="0" ry="0"/>
 </g>
</svg>